<svg width="10" height="12" viewBox="0 0 10 12" fill="none" xmlns="http://www.w3.org/2000/svg">
<path d="M9.57623 5.57645L9.52274 5.57645C9.33436 4.84584 8.67038 4.30549 7.88168 4.30549C7.09256 4.30549 6.42902 4.84611 6.24062 5.57645L1.10376 5.57645C0.869726 5.57645 0.680172 5.76601 0.680172 6.00004C0.680172 6.23406 0.869734 6.42362 1.10376 6.42362L6.24062 6.42362C6.429 7.15423 7.09298 7.69458 7.88168 7.69458C8.6708 7.69458 9.33434 7.15396 9.52274 6.42362L9.57623 6.42362C9.81026 6.42362 9.99982 6.23406 9.99982 6.00003C9.99982 5.76601 9.81025 5.57645 9.57623 5.57645ZM7.88168 6.84725C7.41463 6.84725 7.0345 6.46739 7.0345 6.00007C7.0345 5.53302 7.41437 5.15289 7.88168 5.15289C8.34873 5.15289 8.72901 5.53276 8.72901 6.00007C8.72901 6.46712 8.349 6.84725 7.88168 6.84725Z" fill="black"/>
<path d="M4.43937 9.60086C4.25099 8.87026 3.58701 8.33005 2.79831 8.33005C2.00919 8.33005 1.34565 8.87052 1.15725 9.60086L1.10376 9.60086C0.869726 9.60086 0.680172 9.79057 0.680172 10.0244C0.680172 10.2585 0.869734 10.4482 1.10376 10.4482L1.15725 10.4482C1.34563 11.1788 2.00961 11.719 2.79831 11.719C3.58743 11.719 4.25097 11.1784 4.43937 10.4482L9.57623 10.4482C9.81026 10.4482 9.99982 10.2585 9.99982 10.0244C9.99982 9.79056 9.81025 9.60086 9.57623 9.60086L4.43937 9.60086ZM2.79831 10.8718C2.33126 10.8718 1.95098 10.492 1.95098 10.0245C1.95098 9.55744 2.331 9.17731 2.79831 9.17731C3.26536 9.17731 3.64549 9.55717 3.64549 10.0245C3.64549 10.4917 3.26562 10.8718 2.79831 10.8718Z" fill="black"/>
<path d="M6.34573 1.55203C6.15734 0.821427 5.49337 0.281227 4.70466 0.281227C3.91555 0.281227 3.252 0.821843 3.0636 1.55203L1.10387 1.55203C0.869838 1.55203 0.680283 1.74174 0.680283 1.97577C0.680283 2.20966 0.869845 2.39936 1.10387 2.39936L3.0636 2.39936C3.25198 3.12997 3.91596 3.67017 4.70466 3.67017C5.49378 3.67017 6.15733 3.1297 6.34573 2.39936L9.57641 2.39936C9.81045 2.39936 10 2.20965 10 1.97577C10 1.74174 9.81044 1.55203 9.57641 1.55203L6.34573 1.55203ZM4.70466 2.82299C4.23762 2.82299 3.85749 2.44312 3.85749 1.97581C3.85749 1.50861 4.23735 1.12848 4.70466 1.12848C5.17171 1.12848 5.55199 1.50835 5.55199 1.97581C5.55199 2.44286 5.17198 2.82299 4.70466 2.82299Z" fill="black"/>
</svg>
